<!DOCTYPE svg PUBLIC "-//W3C//DTD SVG 1.1//EN" "http://www.w3.org/Graphics/SVG/1.1/DTD/svg11.dtd">
<!-- Uploaded to: SVG Repo, www.svgrepo.com, Transformed by: SVG Repo Mixer Tools -->
<svg fill="#ffffff" width="256px" height="256px" viewBox="0 0 2.33333 2.33333" style="shape-rendering:geometricPrecision; text-rendering:geometricPrecision; image-rendering:optimizeQuality; fill-rule:evenodd; clip-rule:evenodd" xml:space="preserve" xmlns="http://www.w3.org/2000/svg" xmlns:xlink="http://www.w3.org/1999/xlink" stroke="#ffffff">
<g id="SVGRepo_bgCarrier" stroke-width="0"/>
<g id="SVGRepo_tracerCarrier" stroke-linecap="round" stroke-linejoin="round"/>
<g id="SVGRepo_iconCarrier"> <defs> <style type="text/css">  .fil0 {fill:black}  </style> </defs> <g id="Layer_x0020_1"> <path class="fil0" d="M1.96168 1.70686l-1.59002 0c-0.031937,0 -0.0583228,-0.0263858 -0.0583228,-0.0583268l0 -0.965122c0,-0.031937 0.0249961,-0.056937 0.0583228,-0.056937l1.59002 3.93701e-006c0.031937,0 0.0583228,0.0249961 0.0583228,0.056937l0 0.965122c0,0.0333268 -0.0263819,0.0583228 -0.0583228,0.0583228zm-1.59002 -1.04011c-0.00972047,0 -0.0180512,0.00694488 -0.0180512,0.0166654l0 0.965122c0,0.00972047 0.00833071,0.0180512 0.0180512,0.0180512l1.59002 0c0.00972047,0 0.0180512,-0.00833071 0.0180512,-0.0180551l0 -0.965122c0,-0.00972047 -0.00833071,-0.0166654 -0.0180512,-0.0166654l-1.59002 3.93701e-006z"/> <path class="fil0" d="M1.16459 1.38746c-0.0152795,0 -0.0305512,-0.00555512 -0.0430512,-0.0152756l-0.792925 -0.68461c0,0 -0.00138583,0 -0.00138583,-0.00138976 -0.00865354,-0.00865354 -0.0192283,-0.0208425 -0.00555512,-0.0333307 0.0154134,-0.0140787 0.0252913,-0.00201575 0.0319409,0.00416929l0.791535 0.684614c0.00833071,0.00694094 0.0236102,0.00694094 0.0333307,0l0.792925 -0.684614c0.00131496,-0.00122047 0.0168937,-0.0249409 0.0333307,-0.00694488 0.0173071,0.0189528 -0.00694488,0.0329213 -0.00694488,0.0361063l-0.790154 0.686c-0.0125,0.0111063 -0.0277756,0.0152756 -0.0430472,0.0152756z"/> <path class="fil0" d="M0.346661 1.69853c-0.0177756,0 -0.0276929,-0.0229882 -0.0138858,-0.0347205l0.580461 -0.502697c0.020752,-0.0176299 0.0450748,0.0132874 0.0263858,0.0291654l-0.580461 0.502697c-0.00416929,0.00416142 -0.00833465,0.00555512 -0.0125,0.00555512zm1.63862 0c-0.00416929,0 -0.00972441,-0.00138976 -0.0125,-0.00555512l-0.581846 -0.502697c-0.0198071,-0.0168071 0.00677559,-0.0473937 0.0263858,-0.0291654l0.581846 0.502697c0.0154291,0.0130945 0.00284646,0.0347205 -0.0138858,0.0347205z"/> <path class="fil0" d="M1.56869 1.57077l-0.805425 0c-0.0257717,0 -0.0257717,-0.0388819 0,-0.0388819l0.805425 0c0.0257717,0 0.0257717,0.0388819 0,0.0388819z"/> </g> </g>
</svg>