<svg width="327" height="168" viewBox="0 0 327 168" fill="none" xmlns="http://www.w3.org/2000/svg">
<path d="M375.288 14.5051C352.179 -5.75261 296.075 -37.4478 256.532 -2.16666C207.102 41.9347 254.51 86.4001 152.308 87.5003C70.5465 88.3804 33.2308 137.176 24.7932 161.463" stroke="#D8D8D8" stroke-opacity="0.5"/>
<path d="M88.8978 82.7894C89.8221 88.459 89.7859 88.1503 90.6408 93.3319C90.7994 93.7755 90.5853 94.2688 90.1484 94.4538C90.1007 94.474 90.0513 94.4904 90.0023 94.5021L90.008 94.4997L88.7202 95.0449C88.6853 95.0686 88.6411 95.0918 88.5972 95.1104C88.21 95.2744 87.7694 95.1212 87.5623 94.7701L87.5607 94.7663C84.9689 91.7104 81.4233 87.4429 79.046 84.5909C78.1685 83.5383 78.421 83.4652 79.3892 83.0845C79.7252 82.9535 80.0417 82.8083 80.3718 82.6686C80.3939 82.657 80.4198 82.6438 80.4484 82.6316C80.8223 82.4733 81.2485 82.6191 81.4519 82.956L81.4535 82.9598C82.2645 83.9776 82.853 84.7724 87.7721 91.2639C87.867 91.3925 87.9701 91.5085 88.0716 91.6208L88.1689 91.5796C88.1369 91.3817 88.1192 91.1912 88.0883 90.9905C87.5399 87.7535 86.9879 84.5151 86.4322 81.2751C86.2601 80.2681 86.6073 80.0199 87.5345 79.6274L88.2137 79.3398C88.8283 79.0909 89.0754 79.1326 89.4856 79.6766C90.9078 81.5425 95.4407 87.8871 96.0512 88.5375C95.8161 86.7067 96.1898 89.3113 94.4746 77.7131C94.3555 76.9108 94.4742 76.6918 95.2088 76.3809L96.3363 75.9035C96.8231 75.7087 97.0299 75.7989 97.1147 76.3232C97.2593 77.2654 97.23 77.3183 98.4531 89.7683C98.5493 90.7714 98.4859 90.8927 97.5568 91.2861L96.6085 91.6875C95.9561 91.9637 95.737 91.9192 95.3078 91.3517C94.3094 90.0668 89.602 83.6769 88.8994 82.7932L88.8978 82.7894ZM80.9649 97.8712C81.2069 98.0815 81.5499 98.1478 81.859 98.0169C82.0764 97.9249 82.2339 97.7547 82.3164 97.5511L82.7201 96.937C83.1602 96.2759 83.1344 96.0979 82.5313 95.5928C81.8905 95.0676 81.3423 94.3571 80.9828 93.5081C80.9707 93.4794 80.9586 93.4508 80.9465 93.4222L80.9481 93.426C80.8302 93.1475 78.8935 88.4239 78.34 87.4883C77.519 85.8785 75.7919 85.0033 74.0708 85.2212L74.0417 85.2268C73.2891 85.3249 72.4712 85.5452 71.6718 85.8836C71.4314 85.9854 71.195 86.0967 70.9684 86.2151L70.9982 86.2003C69.6174 86.85 68.4699 87.7745 67.5765 88.8794L67.6145 88.8363C67.4805 89.0033 67.4162 89.2127 67.4334 89.4236L67.434 89.4302C67.4797 89.6763 67.5609 89.9479 67.6731 90.2131C67.7224 90.3295 67.7774 90.4434 67.8354 90.5539L67.827 90.5394C68.1042 91.0453 68.3247 91.0667 68.7535 90.6872C69.1468 90.3407 69.5013 89.9611 69.8999 89.6326C70.4548 89.1098 71.1543 88.6472 71.948 88.3112C72.5642 88.0503 73.1958 87.8842 73.8276 87.8034L73.777 87.8114C74.4585 87.7366 75.1228 87.9931 75.5675 88.491L75.577 88.5027C75.9323 88.9328 76.2572 89.4612 76.5052 90.0469C76.5811 90.2262 76.6494 90.4088 76.7084 90.5908L76.7006 90.5671C76.909 91.0593 76.8995 91.0633 76.3788 91.178C75.472 91.3212 74.4814 91.601 73.5122 92.0113C73.1554 92.1624 72.807 92.3279 72.4716 92.5081L72.5157 92.4849C71.1734 93.1724 70.2489 94.3579 69.8599 95.7082L69.8563 95.721C69.651 96.6178 69.7177 97.6043 70.111 98.5334C70.2701 98.9093 70.4713 99.2516 70.7098 99.56L70.6912 99.5319C71.4404 100.749 72.8048 101.4 74.1768 101.256L74.2021 101.252C74.8171 101.216 75.4802 101.066 76.1232 100.794C77.3957 100.255 78.3857 99.3253 79.009 98.2043L79.0016 98.2186C79.2354 97.8249 79.4123 97.3924 79.6335 96.9477C80.101 97.2763 80.5191 97.5942 80.9589 97.8625L80.9649 97.8712ZM77.2595 92.9447L77.269 92.9407C77.4808 92.851 77.7252 92.9501 77.8148 93.1618C77.8261 93.1886 77.8347 93.2142 77.8403 93.2433L77.8395 93.2414C77.9642 93.5891 78.1366 93.9166 78.2441 94.2715C78.5711 95.3097 78.2994 96.4056 77.6007 97.1626L77.5867 97.1775C77.1502 97.7088 76.5617 98.1627 75.8577 98.4607C75.7146 98.5213 75.5702 98.5734 75.4252 98.619L75.4432 98.6136C74.4089 98.9818 73.2612 98.4867 72.8299 97.4679C72.7637 97.3115 72.7181 97.1508 72.6922 96.9885L72.6959 97.0027C72.3029 95.9362 72.7764 94.7481 73.7868 94.2438L73.7925 94.2414C74.1657 94.0069 74.6121 93.7752 75.0814 93.5765C75.8217 93.2632 76.5816 93.0495 77.3411 92.9304L77.2744 92.9429L77.2595 92.9447ZM110.91 85.5636C112.26 84.3688 112.754 82.4365 112.025 80.7156C111.911 80.4466 111.773 80.1946 111.614 79.9627L111.628 79.9859C110.897 78.8264 109.602 78.1958 108.284 78.2991L108.258 78.3011C106.287 78.4921 104.629 78.544 102.981 78.4992L103.27 78.4961C102.786 78.4646 102.346 78.1786 102.139 77.7171C102.098 77.6514 102.057 77.5718 102.023 77.4897C101.684 76.6903 102.013 75.7772 102.758 75.3675L102.763 75.3651C103.125 75.0993 103.565 74.8504 104.04 74.6493C104.454 74.474 104.878 74.344 105.302 74.2566L105.261 74.2671C105.967 74.1168 106.699 74.1018 107.413 74.0198C107.697 73.9941 108.021 73.9831 108.051 73.5811C108.06 73.3589 108.02 73.1196 107.924 72.8926C107.683 72.324 107.157 71.9639 106.583 71.91L106.574 71.9094C105.441 71.8581 104.224 72.0652 103.056 72.5595C102.014 73.0005 101.111 73.6303 100.367 74.3909L100.408 74.3508C99.2574 75.4858 98.8599 77.22 99.5166 78.7711C100.146 80.2573 101.57 81.1663 103.084 81.2092L103.111 81.209C103.94 81.2494 104.773 81.1285 105.611 81.0887C106.449 81.0489 107.279 80.9946 108.111 80.9888C108.714 81.0529 109.258 81.4281 109.508 82.0176C109.739 82.5632 109.663 83.16 109.358 83.6198L109.354 83.626C107.459 86.048 103.463 85.8657 103.023 85.9057C102.688 85.9328 102.558 86.1251 102.601 86.4759C102.6 86.6764 102.642 86.8926 102.73 87.1005C103.028 87.8046 103.765 88.19 104.487 88.0686L104.498 88.0665C105.683 88.044 106.956 87.782 108.184 87.2618C109.226 86.8209 110.158 86.2262 110.962 85.5168L110.903 85.5641L110.91 85.5636ZM102.503 106.277C107.053 103.748 110.747 100.42 113.594 96.5333L113.483 96.6749C114.021 95.9522 114.48 95.1727 114.953 94.3968C115.411 93.6627 114.543 92.631 113.48 93.7335C109.839 97.5899 105.177 101.044 99.8305 103.608L99.7348 103.653C99.1746 103.924 98.5114 104.223 97.8379 104.508C95.64 105.439 93.4092 106.185 91.1637 106.753L91.4113 106.684C85.1019 108.345 78.9315 108.687 72.9658 107.908L73.2215 107.932C73.0059 107.891 72.7745 107.881 72.5426 107.907L72.5257 107.91C72.0457 107.998 72.0146 108.621 72.6768 108.867C80.8242 111.803 90.0899 111.795 98.7269 108.139L98.7536 108.127L98.7517 108.128C100.009 107.511 101.293 106.958 102.502 106.278L102.503 106.277ZM114.634 91.4225C115.989 90.9345 116.592 91.2168 116.802 92.6329C117.023 94.1007 117.076 95.5969 117.218 97.0755C117.248 97.3689 117.081 97.7975 117.48 97.8942C117.91 97.9864 118.023 97.5582 118.16 97.2595C118.679 96.0659 118.934 94.7675 118.896 93.4496L118.892 93.3862C118.929 92.1018 118.682 90.7214 118.12 89.3955C118.107 89.3649 118.095 89.3363 118.082 89.3058L118.084 89.3096C117.831 88.7644 117.59 88.5895 116.988 88.6665C116.505 88.7158 115.961 88.8271 115.425 88.9956L115.393 89.0066C115.025 89.1105 114.612 89.2561 114.202 89.4298C112.607 90.105 111.259 91.1189 110.204 92.3509L110.25 92.3C110.022 92.5854 109.84 92.8692 109.69 93.1669L109.695 93.158C109.631 93.2793 109.609 93.7523 110.141 93.6124C110.189 93.5968 110.245 93.5753 110.298 93.5527C110.43 93.4969 110.555 93.4306 110.669 93.3552L110.657 93.3627C111.6 92.7948 112.725 92.2217 113.902 91.7234C114.158 91.6152 114.413 91.5116 114.67 91.4118L114.634 91.4271L114.634 91.4225Z" fill="white"/>
<path d="M216.749 87.7062L215.207 88.1192L210.2 69.4325C210.075 68.9663 209.596 68.6896 209.13 68.8145L202.4 70.6177C201.934 70.7426 201.657 71.2218 201.782 71.6881L206.789 90.3747L203.991 91.1245L200.486 78.046C200.361 77.5798 199.882 77.3031 199.416 77.428L192.686 79.2312C192.22 79.3562 191.943 79.8353 192.068 80.3017L195.573 93.3801L192.774 94.1299L190.773 86.6597C190.648 86.1935 190.169 85.9169 189.702 86.0418L182.972 87.8451C182.506 87.97 182.229 88.4492 182.354 88.9154L184.356 96.3856L182.957 96.7605C182.491 96.8854 182.214 97.3646 182.339 97.8308C182.464 98.2972 182.943 98.5739 183.409 98.4489L217.201 89.3945C217.667 89.2696 217.944 88.7904 217.819 88.3241C217.694 87.8579 217.215 87.5813 216.749 87.7062ZM191.086 94.5825L186.044 95.9333L185.94 95.5426L188.241 91.5557C188.483 91.1376 188.34 90.6032 187.922 90.3619C187.504 90.1205 186.969 90.2637 186.728 90.6818L185.3 93.155L184.269 89.3072L189.31 87.9563L191.086 94.5825ZM202.302 91.577L197.855 92.7686L199.785 89.4265C200.026 89.0086 199.883 88.4741 199.465 88.2327C199.047 87.9913 198.513 88.1345 198.271 88.5526L196.78 91.1351L195.653 86.929L198.018 82.8328C198.26 82.4148 198.116 81.8803 197.698 81.6389C197.28 81.3975 196.746 81.5407 196.505 81.9588L195.013 84.5413L193.982 80.6936L199.024 79.3427L202.302 91.577ZM213.519 88.5716L210.775 89.3068L211.352 88.3066C211.594 87.8885 211.45 87.3542 211.033 87.1127C210.615 86.8713 210.08 87.0145 209.839 87.4326L208.453 89.8325L207.271 85.419L209.53 81.5054C209.771 81.0874 209.628 80.553 209.21 80.3116C208.792 80.0702 208.258 80.2134 208.016 80.6315L206.631 83.0314L205.401 78.4398L207.66 74.5264C207.901 74.1084 207.758 73.574 207.34 73.3325C206.922 73.0912 206.388 73.2345 206.146 73.6524L204.761 76.0523L203.696 72.08L208.738 70.7291L213.519 88.5716Z" fill="white"/>
<path d="M208.945 57.5661L205.208 57.2346C204.727 57.1919 204.303 57.5472 204.261 58.0278C204.218 58.5087 204.573 58.933 205.054 58.9756L206.811 59.1315L179.258 83.6125C178.897 83.9331 178.864 84.4854 179.185 84.8463C179.412 85.1021 179.756 85.1929 180.065 85.11C180.192 85.076 180.313 85.0125 180.418 84.9191L207.842 60.5541L207.693 62.2316C207.65 62.7124 208.006 63.1367 208.486 63.1793C208.967 63.2221 209.391 62.8669 209.434 62.3861L209.777 58.5173C209.821 58.028 209.436 57.5878 208.945 57.5661Z" fill="white"/>
<path d="M236.377 -1.94817L255.385 11.4978L252.911 20.7776L246.111 27.5605L224.963 17.8215L236.377 -1.94817ZM238.303 4.14423L234.748 10.3011L231.131 16.5671L233.728 17.6673L237.173 11.701L237.366 11.3659L237.312 11.7816L236.388 18.912L238.868 20.0897L242.095 14.5425L243.824 11.5693L246.874 13.5844L246.049 16.8257L246.047 16.8243L246.04 16.8508L243.805 19.151L241.75 18.1818L241.744 18.1907L240.302 20.6882L240.297 20.697L244.273 22.5565L248.697 18.3544L248.694 18.3529L248.702 18.3453L250.141 12.4558L242.999 7.46075L239.707 13.1637L239.698 13.1778L239.7 13.1602L240.586 5.78906L238.303 4.14423Z" fill="white"/>
</svg>
