<svg width="33" height="33" viewBox="0 0 33 33" fill="none" xmlns="http://www.w3.org/2000/svg">
<path fill-rule="evenodd" clip-rule="evenodd" d="M33 0H0V33H33V0ZM6.00001 17.2534C6.00001 11.5906 10.7014 7 16.4987 7C22.2986 7 27 11.5906 27 17.2534C27.0025 19.4013 26.3116 21.4956 25.0246 23.241C23.7376 24.9863 21.9196 26.2945 19.8272 26.9809C19.2943 27.0818 19.1053 26.7626 19.1053 26.4882C19.1053 26.377 19.1067 26.1815 19.1087 25.92C19.1126 25.3914 19.1184 24.5931 19.1184 23.6759C19.1184 22.7197 18.7824 22.0942 18.4057 21.7776C20.7446 21.5236 23.199 20.6568 23.199 16.7186C23.199 15.599 22.7934 14.6837 22.1201 13.9663C22.2277 13.7071 22.5874 12.6654 22.0151 11.2535C22.0151 11.2535 21.1344 10.9778 19.1302 12.3042C18.2735 12.0763 17.3895 11.9599 16.5013 11.9582C15.6132 11.9593 14.7291 12.0752 13.8724 12.3029C11.8669 10.9765 10.9849 11.2523 10.9849 11.2523C10.4139 12.6629 10.7736 13.7058 10.8825 13.965C10.2105 14.6824 9.801 15.5977 9.801 16.7173C9.801 20.6453 12.2528 21.5249 14.5838 21.784C14.2832 22.0406 14.0115 22.4925 13.917 23.155C13.3185 23.418 11.7973 23.8699 10.8602 22.3036C10.8602 22.3036 10.3063 21.3193 9.25238 21.2466C9.25238 21.2466 8.22732 21.2338 9.1815 21.8695C9.1815 21.8695 9.87057 22.1849 10.347 23.3695C10.347 23.3695 10.9639 25.3635 13.8842 24.7444C13.887 25.203 13.891 25.601 13.894 25.9092C13.8967 26.1758 13.8986 26.3751 13.8986 26.4882C13.8986 26.7601 13.707 27.0767 13.182 26.9822C11.0875 26.2974 9.26727 24.9897 7.97851 23.2439C6.68974 21.4982 5.99764 19.4026 6.00001 17.2534Z" fill="white"/>
</svg>
