<svg width="292" height="124" viewBox="0 0 292 124" fill="none" xmlns="http://www.w3.org/2000/svg">
<path d="M-0.000739095 123.695C4.92412 102.561 25.1808 60.3459 66.8087 60.5657C118.843 60.8404 110.119 105.711 174.949 59.4168C226.812 22.3817 273.452 30.6531 290.29 39.4182" stroke="#D8D8D8" stroke-opacity="0.5" stroke-width="2"/>
<path d="M198.428 50.5237C196.169 51.0634 193.806 50.8778 192.209 50.475L192.185 55.085C193.685 55.511 196.493 55.5564 199.138 54.9242C205.559 53.39 207.798 49.3421 206.857 45.4059C206.071 42.115 203.618 40.4158 199.126 39.8862C195.816 39.4494 194.371 39.1125 194.016 37.6284C193.723 36.4023 194.574 35.1078 196.864 34.5604C199.155 34.013 200.987 34.2574 202.031 34.4855L202.207 29.9414C200.641 29.6676 198.566 29.5494 195.92 30.1816C190.411 31.5322 187.812 35.3591 188.768 39.3599C189.578 42.7476 192.643 44.3002 196.839 44.7302C199.885 45.0596 201.214 45.6287 201.561 47.0806C201.899 48.6369 200.848 49.9455 198.428 50.5237Z" fill="white"/>
<path d="M225.993 43.5617L216.379 45.8592L215.053 40.3098L223.667 38.2513L222.634 33.9279L214.02 35.9864L212.863 31.1467L221.994 28.9649L220.953 24.6093L206.499 28.0632L212.096 51.4869L227.034 47.9174L225.993 43.5617Z" fill="white"/>
<path d="M245.332 45.4208C248.623 44.6345 251.339 42.7237 253.231 40.2251L258.918 43.4705C259.034 43.9545 259.311 44.3999 259.783 44.6623L268.149 49.4162C268.581 49.654 269.039 49.7151 269.491 49.6072C269.975 49.4915 270.38 49.19 270.643 48.718C271.151 47.8463 270.849 46.7248 269.945 46.2246L261.603 41.4307C261.131 41.1683 260.616 41.1549 260.14 41.3028L254.5 38.1142C255.906 35.2886 256.375 31.9705 255.588 28.6796C253.815 21.2588 246.3 16.6426 238.88 18.4158C231.427 20.1967 226.843 27.704 228.616 35.1248C230.397 42.5778 237.912 47.194 245.332 45.4208ZM239.728 21.9648C245.212 20.6542 250.729 24.0427 252.039 29.5276C253.35 35.0125 249.962 40.5289 244.477 41.8395C238.992 43.1501 233.475 39.7616 232.165 34.2767C230.862 28.8241 234.243 23.2755 239.728 21.9648Z" fill="white"/>
<g clip-path="url(#clip0_3_8)">
<path d="M144 59.4688C135.938 59.4688 129.469 65.9844 129.469 74C129.469 82.0157 135.938 88.5313 144 88.5313C152.063 88.5313 158.531 81.9688 158.531 74C158.531 66.0313 151.969 59.4688 144 59.4688ZM156.891 74C156.891 78.875 154.172 83.0938 150.234 85.25L153.984 75.5938C154.172 75.0782 155.484 71.8907 155.953 69.1719C156.563 70.7188 156.891 72.3594 156.891 74ZM146.766 67.6719H145.172H140.156C139.875 67.6719 139.688 67.8594 139.688 68.1407C139.688 68.4219 139.875 68.6094 140.156 68.6094H141.094L142.734 72.8282L140.766 77.8907L137.203 68.5625H138.328C138.609 68.5625 138.797 68.375 138.797 68.0938C138.797 67.8125 138.609 67.625 138.328 67.625H136.406L133.313 67.5782C135.422 63.875 139.5 61.4375 144 61.4375C147.281 61.4375 150.328 62.75 152.578 64.8594C151.406 65.0469 150.469 65.9844 150.188 67.1094C149.906 68.4219 150.375 69.5 150.891 70.4844C151.406 71.5625 151.969 72.5469 151.547 73.7188L149.813 78.2188L146.109 68.5625H146.813C147.094 68.5625 147.281 68.375 147.281 68.0938C147.281 67.8594 146.953 67.6719 146.766 67.6719ZM131.109 74C131.109 72.3594 131.438 70.7657 132.047 69.3125L138.375 85.5782C134.016 83.5157 131.109 79.1094 131.109 74ZM144.141 76.7657L147.891 86.2813C146.625 86.6563 145.359 86.8907 144 86.8907C142.734 86.8907 141.563 86.75 140.438 86.375L144.141 76.7657Z" fill="white"/>
</g>
<path d="M55 44L57.4073 71.0013L68.2101 74L79.0427 70.9971L81.4526 44H55ZM76.4311 50.4078L76.2804 52.0866L76.2142 52.8311H76.2032H68.2263H68.2148H63.5416L63.8442 56.2222H68.2148H68.2263H75.0203H75.9127L75.8319 57.1114L75.0537 65.83L75.0038 66.3891L68.2263 68.2675V68.2682L68.2111 68.2724L61.4275 66.3891L60.9635 61.1895H62.4957H64.2878L64.5236 63.8306L68.2117 64.8266L68.2148 64.8258V64.8254L71.9085 63.8287L72.2925 59.5337H68.2263H68.2148H60.8156L60.0017 50.4078L59.9224 49.5195H68.2148H68.2263H76.5104L76.4311 50.4078Z" fill="white"/>
<defs>
<clipPath id="clip0_3_8">
<rect width="30" height="30" fill="white" transform="translate(129 59)"/>
</clipPath>
</defs>
</svg>
