<svg width="33" height="33" viewBox="0 0 33 33" fill="none" xmlns="http://www.w3.org/2000/svg">
<g clip-path="url(#clip0_55_6)">
<path d="M23.1997 11.4314C23.0565 11.0606 22.8372 10.7239 22.556 10.4429C22.2748 10.162 21.9378 9.9431 21.5669 9.80031C21.0561 9.61112 20.5166 9.51113 19.9719 9.50469C19.0661 9.46344 18.7945 9.45312 16.5 9.45312C14.2055 9.45312 13.9339 9.46344 13.0281 9.50469C12.4829 9.51093 11.9428 9.61093 11.4314 9.80031C11.0606 9.94349 10.7239 10.1628 10.4429 10.444C10.162 10.7252 9.9431 11.0622 9.80031 11.4331C9.61112 11.9439 9.51113 12.4834 9.50469 13.0281C9.46344 13.9339 9.45312 14.2055 9.45312 16.5C9.45312 18.7945 9.46344 19.0661 9.50469 19.9719C9.51093 20.5171 9.61093 21.0572 9.80031 21.5686C9.94349 21.9394 10.1628 22.2761 10.444 22.5571C10.7252 22.838 11.0622 23.0569 11.4331 23.1997C11.9439 23.3889 12.4834 23.4889 13.0281 23.4953C13.9339 23.5366 14.2055 23.5469 16.5 23.5469C18.7945 23.5469 19.0661 23.5366 19.9719 23.4953C20.5171 23.4891 21.0572 23.3891 21.5686 23.1997C21.9394 23.0565 22.2761 22.8372 22.5571 22.556C22.838 22.2748 23.0569 21.9378 23.1997 21.5669C23.3889 21.0561 23.4889 20.5166 23.4953 19.9719C23.5366 19.0661 23.5469 18.7945 23.5469 16.5C23.5469 14.2055 23.5366 13.9339 23.4953 13.0281C23.4891 12.4829 23.3891 11.9428 23.1997 11.4314ZM16.5 20.9137C15.627 20.9137 14.7737 20.6549 14.0479 20.1699C13.322 19.6849 12.7563 18.9956 12.4222 18.1891C12.0882 17.3826 12.0008 16.4951 12.1711 15.6389C12.3414 14.7827 12.7617 13.9963 13.379 13.379C13.9963 12.7617 14.7827 12.3414 15.6389 12.1711C16.4951 12.0008 17.3826 12.0882 18.1891 12.4222C18.9956 12.7563 19.6849 13.322 20.1699 14.0479C20.6549 14.7737 20.9137 15.627 20.9137 16.5C20.9137 17.6706 20.4487 18.7933 19.621 19.621C18.7933 20.4487 17.6706 20.9137 16.5 20.9137ZM21.0873 12.9439C20.8834 12.9439 20.684 12.8834 20.5144 12.7701C20.3448 12.6568 20.2126 12.4957 20.1346 12.3073C20.0565 12.1189 20.0361 11.9115 20.0759 11.7115C20.1157 11.5114 20.2139 11.3277 20.3581 11.1835C20.5024 11.0392 20.6861 10.941 20.8862 10.9012C21.0862 10.8614 21.2935 10.8819 21.482 10.9599C21.6704 11.038 21.8315 11.1701 21.9448 11.3397C22.0581 11.5093 22.1186 11.7087 22.1186 11.9127C22.1186 12.1862 22.0099 12.4485 21.8165 12.6419C21.6231 12.8353 21.3608 12.9439 21.0873 12.9439Z" fill="white"/>
<path d="M16.5 19.3652C18.0824 19.3652 19.3652 18.0824 19.3652 16.5C19.3652 14.9176 18.0824 13.6349 16.5 13.6349C14.9177 13.6349 13.6349 14.9176 13.6349 16.5C13.6349 18.0824 14.9177 19.3652 16.5 19.3652Z" fill="white"/>
<path d="M16.5 7.62939e-06C13.2366 7.62939e-06 7.00009 0 7.00009 0H0.999878C0.999878 0 0.999878 16.5 0.999878 20.0441C0.999878 23.3251 0.999878 33 0.999878 33H12.956C12.9999 33 22.9999 33 22.9999 33L33 33C33 33 33 19.7634 33 16.5C33 12.1239 33 3.00001 33 3.57628e-07C29.5001 0 20.8761 7.62939e-06 16.5 7.62939e-06ZM25.0422 20.0441C25.0275 20.7566 24.8921 21.4616 24.6417 22.1289C24.421 22.6997 24.0835 23.218 23.6508 23.6507C23.218 24.0835 22.6997 24.421 22.1289 24.6417C21.4616 24.892 20.7567 25.0274 20.0441 25.0422C19.1263 25.0834 18.8341 25.0938 16.5 25.0938C14.166 25.0938 13.8738 25.0834 12.956 25.0422C12.2434 25.0274 11.5384 24.892 10.8711 24.6417C10.3004 24.421 9.78201 24.0835 9.34929 23.6507C8.91657 23.218 8.57903 22.6997 8.3583 22.1289C8.10799 21.4616 7.97258 20.7566 7.95783 20.0441C7.91658 19.1263 7.90627 18.8341 7.90627 16.5C7.90627 14.1659 7.91658 13.8738 7.95783 12.9559C7.97258 12.2434 8.10799 11.5384 8.3583 10.8711C8.57903 10.3003 8.91657 9.782 9.34929 9.34928C9.78201 8.91656 10.3004 8.57902 10.8711 8.35829C11.5384 8.10798 12.2434 7.97257 12.956 7.95782C13.8738 7.91657 14.166 7.90626 16.5 7.90626C18.8341 7.90626 19.1263 7.91657 20.0441 7.95782C20.7567 7.97257 21.4616 8.10798 22.1289 8.35829C22.6997 8.57902 23.218 8.91656 23.6508 9.34928C24.0835 9.782 24.421 10.3003 24.6417 10.8711C24.8921 11.5384 25.0275 12.2434 25.0422 12.9559C25.0835 13.8738 25.0938 14.1659 25.0938 16.5C25.0938 18.8341 25.0835 19.1263 25.0422 20.0441Z" fill="white"/>
</g>
<defs>
<clipPath id="clip0_55_6">
<rect width="33" height="33" fill="white"/>
</clipPath>
</defs>
</svg>
