<svg xmlns="http://www.w3.org/2000/svg" xmlns:xlink="http://www.w3.org/1999/xlink" width="500" zoomAndPan="magnify" viewBox="0 0 375 187.499995" height="250" preserveAspectRatio="xMidYMid meet" version="1.0"><defs><g/><clipPath id="6848d8663f"><path d="M 0.5 0 L 204 0 L 204 187 L 0.5 187 Z M 0.5 0 " clip-rule="nonzero"/></clipPath><clipPath id="6417fefb80"><path d="M 302.039062 65.816406 L 311.550781 65.816406 L 311.550781 75.328125 L 302.039062 75.328125 Z M 302.039062 65.816406 " clip-rule="nonzero"/></clipPath><clipPath id="e76753e196"><path d="M 306.792969 65.816406 C 304.167969 65.816406 302.039062 67.945312 302.039062 70.570312 C 302.039062 73.199219 304.167969 75.328125 306.792969 75.328125 C 309.421875 75.328125 311.550781 73.199219 311.550781 70.570312 C 311.550781 67.945312 309.421875 65.816406 306.792969 65.816406 Z M 306.792969 65.816406 " clip-rule="nonzero"/></clipPath></defs><g clip-path="url(#6848d8663f)"><g fill="#ffffff" fill-opacity="1"><g transform="translate(25.339425, 141.064676)"><g><path d="M 15.53125 -20.578125 C 11.007812 -5.796875 8.625 2.003906 8.375 2.828125 C 8.0625 3.742188 7.753906 4.6875 7.453125 5.65625 C 7.359375 5.914062 7.304688 6.1875 7.296875 6.46875 C 6.679688 8.363281 6.085938 10.265625 5.515625 12.171875 C 1.960938 23.785156 -1.34375 35.394531 -4.40625 47 C -4.382812 47.144531 -4.40625 47.285156 -4.46875 47.421875 C -4.488281 47.691406 -4.566406 47.972656 -4.703125 48.265625 C -5.191406 49.273438 -5.929688 49.78125 -6.921875 49.78125 C -7.171875 49.882812 -7.429688 49.925781 -7.703125 49.90625 C -8.242188 49.875 -8.679688 49.722656 -9.015625 49.453125 C -9.347656 49.179688 -9.472656 48.738281 -9.390625 48.125 C -9.035156 45.882812 -8.546875 43.628906 -7.921875 41.359375 C -5.722656 33.703125 -3.546875 25.992188 -1.390625 18.234375 C -0.0976562 13.628906 1.203125 9.003906 2.515625 4.359375 C 3.097656 2.484375 4.910156 -3.421875 7.953125 -13.359375 C 11.003906 -23.304688 12.773438 -29.144531 13.265625 -30.875 C 17.273438 -44.039062 21.601562 -57.144531 26.25 -70.1875 C 29.21875 -78.6875 32.117188 -87.234375 34.953125 -95.828125 C 35.253906 -96.859375 35.691406 -97.8125 36.265625 -98.6875 C 36.765625 -99.363281 37.410156 -99.828125 38.203125 -100.078125 C 38.441406 -100.273438 38.703125 -100.347656 38.984375 -100.296875 C 39.609375 -100.492188 40.128906 -100.40625 40.546875 -100.03125 C 40.960938 -99.664062 41.117188 -99.175781 41.015625 -98.5625 C 40.910156 -98.09375 40.800781 -97.609375 40.6875 -97.109375 C 39.976562 -94.179688 39.128906 -91.25 38.140625 -88.3125 C 34.867188 -78.351562 31.539062 -68.414062 28.15625 -58.5 C 26.40625 -53.414062 24.695312 -48.328125 23.03125 -43.234375 C 22.175781 -40.796875 21.347656 -38.328125 20.546875 -35.828125 C 20.253906 -34.910156 19.960938 -33.976562 19.671875 -33.03125 C 19.609375 -32.875 19.554688 -32.726562 19.515625 -32.59375 C 19.390625 -32.238281 19.300781 -31.894531 19.25 -31.5625 C 19.195312 -31.226562 19.253906 -30.9375 19.421875 -30.6875 C 19.660156 -30.46875 19.945312 -30.351562 20.28125 -30.34375 C 20.59375 -30.457031 20.90625 -30.566406 21.21875 -30.671875 C 21.3125 -30.785156 21.429688 -30.882812 21.578125 -30.96875 C 24.941406 -32.550781 28.304688 -34.144531 31.671875 -35.75 C 41.097656 -40.238281 50.445312 -44.882812 59.71875 -49.6875 C 68.988281 -54.488281 78.125 -59.625 87.125 -65.09375 C 92.75 -68.53125 98.28125 -72.09375 103.71875 -75.78125 C 109.15625 -79.46875 114.429688 -83.429688 119.546875 -87.671875 C 123.816406 -91.222656 127.734375 -95.203125 131.296875 -99.609375 C 133.085938 -101.785156 134.5625 -104.164062 135.71875 -106.75 C 138.082031 -111.925781 137.5625 -116.320312 134.15625 -119.9375 C 132.101562 -122.09375 129.664062 -123.734375 126.84375 -124.859375 C 122.59375 -126.742188 118.101562 -128.023438 113.375 -128.703125 C 101.820312 -130.265625 90.035156 -130.53125 78.015625 -129.5 C 70.953125 -128.863281 63.84375 -128 56.6875 -126.90625 C 52.832031 -126.28125 48.96875 -125.5625 45.09375 -124.75 C 39.289062 -123.53125 33.507812 -122.054688 27.75 -120.328125 C 22 -118.597656 16.351562 -116.328125 10.8125 -113.515625 C 7.3125 -111.722656 3.941406 -109.601562 0.703125 -107.15625 C -1.796875 -105.425781 -3.925781 -103.328125 -5.6875 -100.859375 C -6.164062 -100.128906 -6.773438 -99.535156 -7.515625 -99.078125 C -7.867188 -98.835938 -8.207031 -98.722656 -8.53125 -98.734375 C -9.15625 -98.566406 -9.726562 -98.671875 -10.25 -99.046875 C -10.9375 -99.585938 -11.050781 -100.285156 -10.59375 -101.140625 C -9.882812 -102.503906 -9.007812 -103.734375 -7.96875 -104.828125 C -6.9375 -105.929688 -5.835938 -106.941406 -4.671875 -107.859375 C 0.671875 -112.234375 6.394531 -115.738281 12.5 -118.375 C 19.9375 -121.613281 27.515625 -124.085938 35.234375 -125.796875 C 42.710938 -127.609375 50.238281 -129.160156 57.8125 -130.453125 L 57.984375 -130.484375 C 59.410156 -130.710938 60.859375 -130.945312 62.328125 -131.1875 C 69.609375 -132.25 76.859375 -133.050781 84.078125 -133.59375 C 91.304688 -134.132812 98.519531 -134.203125 105.71875 -133.796875 C 109.4375 -133.554688 113.125 -133.15625 116.78125 -132.59375 C 120.445312 -132.039062 124.019531 -131.175781 127.5 -130 C 131.3125 -128.851562 134.753906 -127.101562 137.828125 -124.75 C 144.640625 -119.351562 145.488281 -112.285156 140.375 -103.546875 C 137.976562 -99.648438 135.15625 -96.125 131.90625 -92.96875 C 127.820312 -88.894531 123.5625 -85.125 119.125 -81.65625 C 114.6875 -78.1875 110.109375 -74.914062 105.390625 -71.84375 C 95.691406 -65.320312 85.789062 -59.28125 75.6875 -53.71875 C 65.582031 -48.164062 55.375 -42.898438 45.0625 -37.921875 C 36.988281 -33.960938 28.910156 -30.117188 20.828125 -26.390625 C 19.535156 -25.847656 18.429688 -25.117188 17.515625 -24.203125 C 16.609375 -23.285156 15.945312 -22.078125 15.53125 -20.578125 Z M 169.046875 -8.203125 C 172.234375 -6.242188 154.914062 -7.71875 117.09375 -12.625 C 91.132812 -16.144531 65.03125 -19.203125 38.78125 -21.796875 C 31.488281 -22.441406 24.175781 -23.019531 16.84375 -23.53125 C 13.90625 -23.800781 10.960938 -24.03125 8.015625 -24.21875 C 7.003906 -24.300781 6.015625 -24.335938 5.046875 -24.328125 C 4.867188 -24.296875 4.671875 -24.289062 4.453125 -24.3125 C 3.804688 -24.207031 3.757812 -25.078125 4.3125 -26.921875 C 4.875 -28.765625 5.816406 -29.460938 7.140625 -29.015625 C 8.890625 -28.429688 12.882812 -27.789062 19.125 -27.09375 C 25.363281 -26.394531 33.414062 -25.535156 43.28125 -24.515625 C 61.945312 -22.722656 84.304688 -20.207031 110.359375 -16.96875 C 146.296875 -13.082031 165.859375 -10.160156 169.046875 -8.203125 Z M 169.046875 -8.203125 "/></g></g></g></g><g fill="#ffffff" fill-opacity="1"><g transform="translate(122.136419, 125.342547)"><g><path d="M 28.125 -27.46875 C 28.875 -27.1875 29.085938 -26.238281 28.765625 -24.625 C 28.085938 -23.382812 27.347656 -22.203125 26.546875 -21.078125 C 25.742188 -19.960938 24.832031 -18.925781 23.8125 -17.96875 C 23.726562 -17.945312 23.691406 -17.914062 23.703125 -17.875 C 23.023438 -17.226562 22.289062 -16.644531 21.5 -16.125 C 14.9375 -12.488281 11.140625 -13.378906 10.109375 -18.796875 C 7.671875 -15.890625 6.019531 -14.082031 5.15625 -13.375 C 3.0625 -11.625 0.660156 -10.601562 -2.046875 -10.3125 C -4.046875 -10.101562 -5.488281 -10.488281 -6.375 -11.46875 C -7.269531 -12.445312 -7.445312 -13.941406 -6.90625 -15.953125 C -6.101562 -19.097656 -4.707031 -22.019531 -2.71875 -24.71875 C -0.363281 -27.738281 2.378906 -30.296875 5.515625 -32.390625 C 7.179688 -33.585938 9.019531 -34.242188 11.03125 -34.359375 C 13.039062 -34.578125 14.421875 -33.65625 15.171875 -31.59375 C 15.453125 -30.96875 15.390625 -30.375 14.984375 -29.8125 C 14.429688 -29.113281 13.707031 -28.851562 12.8125 -29.03125 C 12.75 -29.03125 12.664062 -29.035156 12.5625 -29.046875 C 12.457031 -29.054688 12.367188 -29.085938 12.296875 -29.140625 C 11.265625 -30.160156 10.332031 -30.503906 9.5 -30.171875 C 8.664062 -29.847656 7.816406 -29.320312 6.953125 -28.59375 C 2.878906 -25.226562 0.128906 -21.019531 -1.296875 -15.96875 C -1.378906 -15.738281 -1.414062 -15.5 -1.40625 -15.25 C -1.394531 -15 -1.289062 -14.816406 -1.09375 -14.703125 C -0.539062 -14.609375 0.0351562 -14.734375 0.640625 -15.078125 C 1.242188 -15.429688 1.828125 -15.898438 2.390625 -16.484375 C 2.953125 -17.078125 3.425781 -17.570312 3.8125 -17.96875 C 3.863281 -18.0625 3.890625 -18.109375 3.890625 -18.109375 C 5.734375 -20.222656 7.519531 -22.382812 9.25 -24.59375 C 10 -25.707031 11.035156 -26.429688 12.359375 -26.765625 C 14.285156 -27.078125 15.226562 -26.347656 15.1875 -24.578125 C 15.125 -23.910156 15.039062 -23.238281 14.9375 -22.5625 C 14.625 -19.664062 14.859375 -18.03125 15.640625 -17.65625 C 16.421875 -17.28125 17.492188 -17.453125 18.859375 -18.171875 C 20.222656 -18.898438 21.519531 -20.0625 22.75 -21.65625 C 23.976562 -23.25 24.992188 -24.6875 25.796875 -25.96875 C 26.609375 -27.25 27.382812 -27.75 28.125 -27.46875 Z M 28.125 -27.46875 "/></g></g></g><g fill="#ffffff" fill-opacity="1"><g transform="translate(151.162384, 120.628042)"><g><path d="M 17.578125 -25.625 C 13.242188 -23.164062 10.148438 -21.234375 8.296875 -19.828125 C 6.910156 -18.847656 6.144531 -18.097656 6 -17.578125 C 5.863281 -17.054688 6.175781 -16.203125 6.9375 -15.015625 C 6.945312 -14.960938 7.007812 -14.882812 7.125 -14.78125 C 8.007812 -13.332031 8.648438 -11.785156 9.046875 -10.140625 C 9.804688 -6.816406 7.335938 -4.003906 1.640625 -1.703125 C -4.054688 0.597656 -8.003906 1.285156 -10.203125 0.359375 C -12.410156 -0.566406 -13.285156 -2.054688 -12.828125 -4.109375 C -12.367188 -6.171875 -10.675781 -8.457031 -7.75 -10.96875 C -4.832031 -13.476562 -2.898438 -15.257812 -1.953125 -16.3125 C -1.003906 -17.363281 -0.832031 -18.394531 -1.4375 -19.40625 C -1.644531 -19.75 -1.867188 -20.097656 -2.109375 -20.453125 C -2.640625 -21.296875 -3.1875 -22.171875 -3.75 -23.078125 C -4.789062 -24.691406 -5.394531 -26.351562 -5.5625 -28.0625 C -5.738281 -29.78125 -5.34375 -31.304688 -4.375 -32.640625 C -3.414062 -33.984375 -1.726562 -34.898438 0.6875 -35.390625 C 2.039062 -35.660156 3.289062 -35.671875 4.4375 -35.421875 C 5.582031 -35.179688 6.570312 -34.546875 7.40625 -33.515625 C 8.0625 -32.804688 8.019531 -32.0625 7.28125 -31.28125 C 6.800781 -30.757812 6.207031 -30.609375 5.5 -30.828125 C 5.070312 -30.929688 4.640625 -31.113281 4.203125 -31.375 C 4.191406 -31.457031 4.1875 -31.5 4.1875 -31.5 C 4 -31.601562 3.816406 -31.695312 3.640625 -31.78125 C 3.421875 -32.007812 3.203125 -32.179688 2.984375 -32.296875 C 2.128906 -32.722656 1.332031 -32.765625 0.59375 -32.421875 C -0.144531 -32.078125 -0.625 -31.394531 -0.84375 -30.375 C -0.976562 -29.570312 -0.984375 -28.773438 -0.859375 -27.984375 C -0.648438 -27.023438 -0.285156 -26.125 0.234375 -25.28125 C 0.597656 -24.78125 0.921875 -24.3125 1.203125 -23.875 C 1.898438 -22.664062 2.445312 -21.84375 2.84375 -21.40625 C 3.25 -20.976562 3.671875 -20.835938 4.109375 -20.984375 C 4.554688 -21.140625 8.453125 -23.300781 15.796875 -27.46875 C 17.398438 -28.300781 17.992188 -27.6875 17.578125 -25.625 Z M 1.34375 -5.828125 C 3.28125 -6.867188 3.914062 -8.382812 3.25 -10.375 C 3.226562 -10.519531 3.175781 -10.675781 3.09375 -10.84375 C 2.789062 -11.925781 2.414062 -12.738281 1.96875 -13.28125 C 1.519531 -13.820312 0.738281 -13.671875 -0.375 -12.828125 C -3.132812 -10.617188 -5.609375 -8.15625 -7.796875 -5.4375 C -7.941406 -5.195312 -8.070312 -4.976562 -8.1875 -4.78125 C -8.1875 -4.78125 -8.210938 -4.734375 -8.265625 -4.640625 C -8.398438 -4.367188 -8.382812 -4.097656 -8.21875 -3.828125 C -8.050781 -3.554688 -7.765625 -3.453125 -7.359375 -3.515625 C -4.273438 -3.546875 -1.375 -4.316406 1.34375 -5.828125 Z M 1.34375 -5.828125 "/></g></g></g><g fill="#ffffff" fill-opacity="1"><g transform="translate(170.556807, 117.477927)"><g><path d="M 32.234375 -26.1875 C 31.785156 -25.613281 31.300781 -25.097656 30.78125 -24.640625 C 29.101562 -23.160156 27.566406 -21.960938 26.171875 -21.046875 C 24.773438 -20.128906 23.109375 -19.15625 21.171875 -18.125 C 18.285156 -16.726562 16.304688 -16.617188 15.234375 -17.796875 C 14.160156 -18.972656 13.734375 -20.773438 13.953125 -23.203125 C 14.210938 -26.671875 14.285156 -29.1875 14.171875 -30.75 C 14.054688 -32.3125 13.457031 -32.757812 12.375 -32.09375 C 11.300781 -31.425781 9.46875 -29.488281 6.875 -26.28125 C 3.226562 -21.945312 0.285156 -17.1875 -1.953125 -12 C -2.234375 -11.289062 -2.613281 -10.6875 -3.09375 -10.1875 C -3.582031 -9.695312 -4.234375 -9.382812 -5.046875 -9.25 C -5.835938 -9.125 -6.441406 -9.234375 -6.859375 -9.578125 C -7.273438 -9.929688 -7.382812 -10.488281 -7.1875 -11.25 C -6.070312 -15.320312 -4.910156 -19.367188 -3.703125 -23.390625 C -1.660156 -30.367188 0.335938 -37.316406 2.296875 -44.234375 C 3.765625 -49.410156 5.207031 -54.585938 6.625 -59.765625 C 7.488281 -62.804688 8.332031 -65.847656 9.15625 -68.890625 C 9.238281 -69.148438 9.335938 -69.421875 9.453125 -69.703125 C 9.515625 -70.046875 9.597656 -70.390625 9.703125 -70.734375 C 9.804688 -71.078125 9.929688 -71.457031 10.078125 -71.875 C 10.203125 -72.21875 10.488281 -72.53125 10.9375 -72.8125 C 11.382812 -73.101562 11.84375 -73.316406 12.3125 -73.453125 C 12.789062 -73.585938 13.164062 -73.617188 13.4375 -73.546875 C 13.863281 -73.347656 14.117188 -73.101562 14.203125 -72.8125 C 14.296875 -72.53125 14.296875 -72.21875 14.203125 -71.875 C 14.160156 -71.800781 14.15625 -71.691406 14.1875 -71.546875 C 13.882812 -69.734375 13.535156 -67.972656 13.140625 -66.265625 C 10.890625 -56.722656 8.28125 -47.265625 5.3125 -37.890625 C 5.082031 -37.242188 4.816406 -36.476562 4.515625 -35.59375 C 4.054688 -34.320312 3.640625 -33.082031 3.265625 -31.875 C 2.898438 -30.664062 2.84375 -29.882812 3.09375 -29.53125 C 3.34375 -29.1875 4.160156 -29.625 5.546875 -30.84375 C 5.972656 -31.226562 6.34375 -31.613281 6.65625 -32 C 7.757812 -33.019531 8.847656 -33.992188 9.921875 -34.921875 C 10.859375 -35.785156 11.960938 -36.347656 13.234375 -36.609375 C 16.265625 -37.316406 18.210938 -36.210938 19.078125 -33.296875 C 19.421875 -32.117188 19.566406 -30.925781 19.515625 -29.71875 C 19.472656 -28.519531 19.390625 -27.328125 19.265625 -26.140625 C 19.253906 -25.804688 19.242188 -25.472656 19.234375 -25.140625 C 19.035156 -23.066406 19.359375 -21.945312 20.203125 -21.78125 C 21.054688 -21.625 22.15625 -21.96875 23.5 -22.8125 C 24.84375 -23.664062 26.1875 -24.65625 27.53125 -25.78125 C 28.476562 -26.46875 29.304688 -27.0625 30.015625 -27.5625 C 30.722656 -28.070312 31.269531 -28.328125 31.65625 -28.328125 C 32.375 -28.328125 32.742188 -28.09375 32.765625 -27.625 C 32.785156 -27.15625 32.609375 -26.675781 32.234375 -26.1875 Z M 32.234375 -26.1875 "/></g></g></g><g fill="#ffffff" fill-opacity="1"><g transform="translate(203.960744, 112.052335)"><g><path d="M 22.21875 -20.859375 C 20.800781 -18.921875 19.0625 -17.175781 17 -15.625 C 14.945312 -14.082031 13.191406 -13.003906 11.734375 -12.390625 C 10.273438 -11.785156 8.75 -11.328125 7.15625 -11.015625 C 4.601562 -10.460938 2.179688 -10.425781 -0.109375 -10.90625 C -3.867188 -11.757812 -5.535156 -14.289062 -5.109375 -18.5 C -4.660156 -22.144531 -3.03125 -25.195312 -0.21875 -27.65625 C 2.582031 -30.113281 5.648438 -31.582031 8.984375 -32.0625 C 8.984375 -32.0625 9.015625 -32.066406 9.078125 -32.078125 C 9.910156 -32.273438 10.722656 -32.347656 11.515625 -32.296875 C 12.878906 -32.035156 13.820312 -31.40625 14.34375 -30.40625 C 14.863281 -29.414062 14.816406 -28.210938 14.203125 -26.796875 C 12.796875 -23.671875 10.507812 -21.6875 7.34375 -20.84375 C 5.25 -20.289062 3.175781 -20.054688 1.125 -20.140625 C 0.738281 -20.140625 0.421875 -19.984375 0.171875 -19.671875 C -0.0664062 -19.359375 -0.1875 -19.007812 -0.1875 -18.625 C -0.375 -16.019531 0.65625 -14.539062 2.90625 -14.1875 C 5.675781 -13.707031 8.40625 -14.148438 11.09375 -15.515625 C 14.195312 -17.066406 16.992188 -19.492188 19.484375 -22.796875 C 21.972656 -26.109375 23.457031 -27.707031 23.9375 -27.59375 C 24.425781 -27.476562 24.65625 -26.953125 24.625 -26.015625 C 24.445312 -24.523438 23.644531 -22.804688 22.21875 -20.859375 Z M 2.4375 -24.890625 C 2.289062 -24.648438 2.203125 -24.398438 2.171875 -24.140625 C 2.140625 -23.890625 2.269531 -23.679688 2.5625 -23.515625 C 3.675781 -23.085938 4.816406 -23.050781 5.984375 -23.40625 C 7.148438 -23.769531 8.085938 -24.390625 8.796875 -25.265625 C 9.515625 -26.148438 9.734375 -27.117188 9.453125 -28.171875 C 9.296875 -28.546875 9.046875 -28.753906 8.703125 -28.796875 C 8.367188 -28.847656 8.050781 -28.828125 7.75 -28.734375 C 5.644531 -27.992188 3.875 -26.710938 2.4375 -24.890625 Z M 2.4375 -24.890625 "/></g></g></g><g fill="#ffffff" fill-opacity="1"><g transform="translate(229.44055, 107.91381)"><g><path d="M 35.140625 -29.359375 C 35.785156 -29.304688 36.144531 -29.132812 36.21875 -28.84375 C 36.289062 -28.5625 36.328125 -28.421875 36.328125 -28.421875 C 35.816406 -27.078125 35.195312 -25.820312 34.46875 -24.65625 C 32.769531 -22 30.660156 -19.769531 28.140625 -17.96875 C 26.910156 -16.988281 25.453125 -16.328125 23.765625 -15.984375 C 19.867188 -15.296875 17.769531 -16.90625 17.46875 -20.8125 C 17.476562 -21.644531 17.535156 -22.476562 17.640625 -23.3125 C 17.722656 -23.71875 17.765625 -24.109375 17.765625 -24.484375 C 17.921875 -25.960938 17.90625 -26.765625 17.71875 -26.890625 C 17.53125 -27.023438 17.132812 -26.546875 16.53125 -25.453125 C 16.351562 -25.253906 16.195312 -25.035156 16.0625 -24.796875 C 15.113281 -23.210938 14.140625 -21.648438 13.140625 -20.109375 C 11.304688 -17.179688 9.085938 -14.601562 6.484375 -12.375 C 4.921875 -11.070312 3.1875 -10.234375 1.28125 -9.859375 C -1.851562 -9.203125 -3.859375 -10.359375 -4.734375 -13.328125 C -5.078125 -14.546875 -5.210938 -15.769531 -5.140625 -17 C -4.671875 -22.175781 -2.71875 -26.375 0.71875 -29.59375 C 4.15625 -32.820312 8.414062 -34.457031 13.5 -34.5 C 14.96875 -34.3125 15.925781 -34.859375 16.375 -36.140625 C 16.5625 -36.617188 16.75 -37.109375 16.9375 -37.609375 C 17.90625 -40.140625 18.847656 -42.664062 19.765625 -45.1875 C 21.460938 -50.007812 23.175781 -54.863281 24.90625 -59.75 C 26.3125 -63.613281 27.71875 -67.5 29.125 -71.40625 C 29.519531 -72.613281 29.984375 -73.785156 30.515625 -74.921875 C 30.765625 -75.460938 31.117188 -75.820312 31.578125 -76 C 32.046875 -76.1875 32.546875 -76.328125 33.078125 -76.421875 C 33.191406 -76.429688 33.320312 -76.453125 33.46875 -76.484375 C 34.050781 -76.578125 34.539062 -76.503906 34.9375 -76.265625 C 35.332031 -76.035156 35.46875 -75.65625 35.34375 -75.125 C 35.164062 -73.84375 34.90625 -72.597656 34.5625 -71.390625 C 32.738281 -65.585938 31.085938 -59.738281 29.609375 -53.84375 C 28.128906 -47.957031 26.6875 -42.039062 25.28125 -36.09375 C 24.832031 -34.050781 24.367188 -32.003906 23.890625 -29.953125 C 23.296875 -27.546875 22.875 -25.101562 22.625 -22.625 C 22.53125 -22.082031 22.523438 -21.554688 22.609375 -21.046875 C 22.691406 -20.535156 23.007812 -20.128906 23.5625 -19.828125 C 23.914062 -19.671875 24.253906 -19.6875 24.578125 -19.875 C 24.910156 -20.0625 25.265625 -20.28125 25.640625 -20.53125 C 25.691406 -20.625 25.769531 -20.707031 25.875 -20.78125 C 28.394531 -22.84375 30.625 -25.179688 32.5625 -27.796875 C 32.875 -28.234375 33.21875 -28.617188 33.59375 -28.953125 C 33.976562 -29.285156 34.492188 -29.421875 35.140625 -29.359375 Z M 13.0625 -28.671875 C 13.289062 -29.253906 13.296875 -29.773438 13.078125 -30.234375 C 12.867188 -30.691406 12.484375 -30.992188 11.921875 -31.140625 C 10.742188 -31.546875 9.582031 -31.429688 8.4375 -30.796875 C 5.570312 -29.398438 3.332031 -27.265625 1.71875 -24.390625 C 0.101562 -21.523438 -0.539062 -18.546875 -0.21875 -15.453125 C -0.144531 -15.328125 -0.101562 -15.238281 -0.09375 -15.1875 C -0.0507812 -14.914062 -0.0078125 -14.644531 0.03125 -14.375 C 0.53125 -13.019531 1.445312 -12.894531 2.78125 -14 C 4.113281 -15.101562 5.535156 -16.765625 7.046875 -18.984375 C 8.554688 -21.203125 9.894531 -23.296875 11.0625 -25.265625 C 12.226562 -27.242188 12.894531 -28.378906 13.0625 -28.671875 Z M 13.0625 -28.671875 "/></g></g></g><g clip-path="url(#6417fefb80)"><g clip-path="url(#e76753e196)"><path fill="#ffffff" d="M 302.039062 65.816406 L 311.550781 65.816406 L 311.550781 75.328125 L 302.039062 75.328125 Z M 302.039062 65.816406 " fill-opacity="1" fill-rule="nonzero"/></g></g></svg>